<svg width="16" height="16" viewBox="0 0 16 16" fill="none" xmlns="http://www.w3.org/2000/svg">
<path d="M7.5265 5C7.5265 5.55228 7.97422 6 8.5265 6C9.07878 6 9.5265 5.55228 9.5265 5C9.5265 4.44772 9.07878 4 8.5265 4C7.97422 4 7.5265 4.44772 7.5265 5Z" fill="#A6B0B3"/>
<path d="M8.486 7.4436C8.706 7.7266 8.782 8.0856 8.695 8.4336L8.053 10.9996H9.027C9.30314 10.9996 9.527 11.2235 9.527 11.4996C9.527 11.7757 9.30314 11.9996 9.027 11.9996H7.476C7.118 11.9996 6.787 11.8376 6.567 11.5556C6.347 11.2746 6.271 10.9126 6.358 10.5666L7 7.9996H6.027C5.75086 7.9996 5.527 7.77574 5.527 7.4996C5.527 7.22346 5.75086 6.9996 6.027 6.9996H7.577C7.935 6.9996 8.266 7.1626 8.486 7.4436Z" fill="#A6B0B3"/>
<path fill-rule="evenodd" clip-rule="evenodd" d="M0 8C0 3.589 3.589 0 8 0C12.411 0 16 3.589 16 8C16 12.411 12.411 16 8 16C3.589 16 0 12.411 0 8ZM1 8C1 11.859 4.14 15 8 15C11.86 15 15 11.859 15 8C15 4.141 11.86 1 8 1C4.14 1 1 4.141 1 8Z" fill="#A6B0B3"/>
</svg>
