<svg width="51" height="56" viewBox="0 0 51 56" fill="none" xmlns="http://www.w3.org/2000/svg">
<path d="M51 8.46512L43.2192 0H7.78077L0 8.46512C0 8.46512 4.11923 15.5628 3.53077 22.986C3.33462 25.9814 1.56923 31.6465 1.96154 35.8791C2.61538 43.3023 8.36923 46.5581 13.2731 48.5116C16.15 49.6186 22.1 51.7674 25.5 55.9349V56V55.9349C28.8346 51.7674 34.85 49.6186 37.7269 48.5116C42.5654 46.6233 48.3192 43.3023 49.0385 35.8791C49.4308 31.6465 47.6654 25.9163 47.4692 22.986C46.8808 15.5628 51 8.46512 51 8.46512ZM46.4231 35.6837C46.0308 40.4372 43.0231 43.6279 36.8115 46.1023L36.2885 46.2977C33.6731 47.3395 29.2269 49.0326 25.6962 52.093L25.5 51.8326L25.3038 52.093C21.7731 49.0326 17.3269 47.3395 14.7115 46.2977L14.1885 46.1023C7.97692 43.6279 5.03462 40.4372 4.57692 35.6837C4.38077 33.2744 4.96923 30.214 5.49231 27.4791C5.81923 25.8512 6.08077 24.4186 6.14615 23.1814C6.60385 17.2558 4.38077 11.6558 3.13846 8.92093L8.95769 2.60465H42.0423L47.8615 8.92093C46.5538 11.6558 44.3962 17.2558 44.8538 23.1814C44.9192 24.4186 45.2462 25.786 45.5077 27.4791C46.0308 30.214 46.6192 33.2744 46.4231 35.6837Z" fill="#5A5A89"/>
<path d="M29.0962 18.2311L30.7308 14.7148L20.2692 18.2311H29.0962Z" fill="#5A5A89"/>
<path d="M9.15383 33.8607C9.2846 32.2328 9.67691 30.0188 10.0038 28.3258C10.3308 26.5025 10.6577 25.0049 10.7231 23.5723C10.8538 21.749 10.5923 19.9258 10.3961 18.2328H17.5884L23.4077 5.92578H10.5269L7.06152 9.76764C8.30383 13.0235 9.80768 18.1676 9.41537 23.5072C9.34998 24.8746 9.02306 26.3723 8.69614 28.0653C8.23845 30.4746 7.64998 33.4049 7.84614 35.3583C8.04229 37.8328 9.15383 40.6979 15.4961 43.1723L16.0192 43.3677C16.4115 43.4979 16.8038 43.6932 17.1961 43.8235L22.2308 33.8607H9.15383Z" fill="#5A5A89"/>
<path d="M35.0461 43.4328L35.5692 43.2374C41.9115 40.763 43.0231 37.8979 43.2192 35.4235C43.4154 33.47 42.8269 30.5397 42.3692 28.1304C42.0423 26.3723 41.7807 24.9397 41.65 23.5723C41.2577 18.1025 42.6961 13.0235 43.9384 9.76764L40.4731 5.92578H29.6192L24.3231 13.87L37.923 8.20485L32.6923 18.2328H40.5384C40.3423 19.9258 40.0807 21.8142 40.2115 23.5723C40.3423 25.0049 40.6038 26.5676 40.9307 28.3258C41.2577 29.9537 41.65 32.2328 41.7807 33.8607H24.1269L18.1115 44.2793C20.2692 45.1909 22.95 46.4281 25.4346 48.2514C28.9654 45.7769 32.6923 44.3444 35.0461 43.4328Z" fill="#5A5A89"/>
<path d="M16.6077 23.6371C17.1308 23.1162 17.7846 22.8557 18.4384 22.8557C18.9615 22.8557 19.3538 22.986 19.6808 23.2464C20.0077 23.5069 20.2038 23.8976 20.4 24.4836H21.6423L22.3615 21.6185H21.1192L20.9231 22.465C20.4 21.8139 19.6154 21.4883 18.5038 21.4883C17.2615 21.4883 16.2154 21.879 15.1692 22.6604C14.1884 23.4418 13.5346 24.4836 13.2077 25.786C13.1423 26.1767 13.0769 26.5674 13.0769 26.8929C13.0769 27.6743 13.2731 28.3255 13.7308 28.9115C14.3846 29.6929 15.3 30.1488 16.6077 30.1488C17.5884 30.1488 18.5038 29.8883 19.3538 29.4325C20.1384 28.9115 20.8577 28.1953 21.3808 27.2836L20.0731 26.5674C19.2884 27.9348 18.3077 28.6511 17.0654 28.6511C16.4769 28.6511 16.0846 28.5208 15.7577 28.1953C15.4308 27.8697 15.3 27.4139 15.3 26.8278C15.3 26.5022 15.3654 26.1115 15.4308 25.786C15.6923 24.8743 16.0846 24.158 16.6077 23.6371Z" fill="#5A5A89"/>
<path d="M29.227 24.873L30.0116 21.6172H22.8847L22.1 24.873H23.4731L23.9308 22.9195H25.1077L23.7347 28.5846H22.6231L22.2962 29.9521H26.6116L26.9385 28.5846H25.7616L27.1347 22.9195H28.3116L27.8539 24.873H29.227Z" fill="#5A5A89"/>
<path d="M33.7385 22.9195L34 21.6172H30.3384L30.0115 22.9195H30.9269L29.5538 28.5846H28.6384L28.3115 29.9521H34.9808L34.5885 31.6451H36.1577L36.8769 28.5846H36.0269L37.4 22.9195H38.25L38.5769 21.6172H34.9154L34.5885 22.9195H35.3077L33.9346 28.5846H31.5808L32.9538 22.9195H33.7385Z" fill="#5A5A89"/>
</svg>
