<svg width="87" height="96" viewBox="0 0 84 92" fill="none" xmlns="http://www.w3.org/2000/svg">
<path d="M84 13.907L71.1846 0H12.8154L0 13.907C0 13.907 6.78462 25.5674 5.81538 37.7628C5.49231 42.6837 2.58462 51.9907 3.23077 58.9442C4.30769 71.1395 13.7846 76.4884 21.8615 79.6977C26.6 81.5163 36.4 85.0465 42 91.893V92V91.893C47.4923 85.0465 57.4 81.5163 62.1385 79.6977C70.1077 76.5954 79.5846 71.1395 80.7692 58.9442C81.4154 51.9907 78.5077 42.5767 78.1846 37.7628C77.2154 25.5674 84 13.907 84 13.907ZM76.4615 58.6233C75.8154 66.4326 70.8615 71.6744 60.6308 75.7395L59.7692 76.0605C55.4615 77.7721 48.1385 80.5535 42.3231 85.5814L42 85.1535L41.6769 85.5814C35.8615 80.5535 28.5385 77.7721 24.2308 76.0605L23.3692 75.7395C13.1385 71.6744 8.29231 66.4326 7.53846 58.6233C7.21538 54.6651 8.18462 49.6372 9.04615 45.1442C9.58462 42.4698 10.0154 40.1163 10.1231 38.0837C10.8769 28.3488 7.21538 19.1488 5.16923 14.6558L14.7538 4.27907H69.2462L78.8308 14.6558C76.6769 19.1488 73.1231 28.3488 73.8769 38.0837C73.9846 40.1163 74.5231 42.3628 74.9538 45.1442C75.8154 49.6372 76.7846 54.6651 76.4615 58.6233Z" fill="#5A5A89"/>
<path d="M47.9231 29.9525L50.6154 24.1758L33.3846 29.9525H47.9231Z" fill="#5A5A89"/>
<path d="M15.0769 55.6274C15.2923 52.953 15.9384 49.3158 16.4769 46.5344C17.0154 43.539 17.5538 41.0786 17.6615 38.7251C17.8769 35.7297 17.4461 32.7344 17.123 29.953H28.9692L38.5538 9.73438H17.3384L11.6307 16.046C13.6769 21.3948 16.1538 29.846 15.5077 38.6181C15.4 40.8646 14.8615 43.3251 14.323 46.1065C13.5692 50.0646 12.6 54.8786 12.923 58.0879C13.2461 62.153 15.0769 66.86 25.523 70.9251L26.3846 71.246C27.0307 71.46 27.6769 71.7809 28.323 71.9949L36.6154 55.6274H15.0769Z" fill="#5A5A89"/>
<path d="M57.7231 71.353L58.5847 71.032C69.0308 66.9669 70.8616 62.2599 71.1847 58.1948C71.5077 54.9855 70.5385 50.1716 69.7847 46.2134C69.2462 43.3251 68.8154 40.9716 68.6 38.7251C67.9539 29.739 70.3231 21.3948 72.3693 16.046L66.6616 9.73438H48.7847L40.0616 22.7855L62.4616 13.4786L53.8462 29.953H66.7693C66.4462 32.7344 66.0154 35.8367 66.2308 38.7251C66.4462 41.0786 66.877 43.646 67.4154 46.5344C67.9539 49.2088 68.6 52.953 68.8154 55.6274H39.7385L29.8308 72.7437C33.3847 74.2413 37.8 76.2739 41.8924 79.2692C47.7077 75.2041 53.8462 72.8506 57.7231 71.353Z" fill="#5A5A89"/>
<path d="M27.3538 38.833C28.2154 37.9772 29.2923 37.5492 30.3692 37.5492C31.2308 37.5492 31.8769 37.7632 32.4154 38.1911C32.9538 38.619 33.2769 39.2609 33.6 40.2237H35.6461L36.8308 35.5167H34.7846L34.4615 36.9074C33.6 35.8376 32.3077 35.3027 30.4769 35.3027C28.4308 35.3027 26.7077 35.9446 24.9846 37.2283C23.3692 38.512 22.2923 40.2237 21.7538 42.3632C21.6461 43.0051 21.5385 43.6469 21.5385 44.1818C21.5385 45.4655 21.8615 46.5353 22.6154 47.4981C23.6923 48.7818 25.2 49.5306 27.3538 49.5306C28.9692 49.5306 30.4769 49.1027 31.8769 48.3539C33.1692 47.4981 34.3538 46.3213 35.2154 44.8237L33.0615 43.6469C31.7692 45.8934 30.1538 47.0702 28.1077 47.0702C27.1385 47.0702 26.4923 46.8562 25.9538 46.3213C25.4154 45.7865 25.2 45.0376 25.2 44.0748C25.2 43.5399 25.3077 42.8981 25.4154 42.3632C25.8461 40.8655 26.4923 39.6888 27.3538 38.833Z" fill="#5A5A89"/>
<path d="M48.1385 40.8645L49.4308 35.5156H37.6923L36.4 40.8645H38.6616L39.4154 37.6552H41.3539L39.0923 46.9621H37.2616L36.7231 49.2087H43.8308L44.3693 46.9621H42.4308L44.6923 37.6552H46.6308L45.877 40.8645H48.1385Z" fill="#5A5A89"/>
<path d="M55.5692 37.6552L56 35.5156H49.9692L49.4307 37.6552H50.9384L48.6769 46.9621H47.1692L46.6307 49.2086H57.6154L56.9692 51.99H59.5538L60.7384 46.9621H59.3384L61.6 37.6552H63L63.5384 35.5156H57.5077L56.9692 37.6552H58.1538L55.8923 46.9621H52.0154L54.2769 37.6552H55.5692Z" fill="#5A5A89"/>
</svg>
